HIERARCHY
ROOT Hips
{
	OFFSET 0.000000 0.000000 0.000000
	CHANNELS 6 Xposition Yposition Zposition Xrotation Yrotation Zrotation
	JOINT LeftUpLeg_virtual
	{
		OFFSET 0.000000 0.000000 0.000000
		CHANNELS 3 Xrotation Yrotation Zrotation
		JOINT LeftUpLeg
		{
			OFFSET 11.394100 -6.187798 -0.413800
			CHANNELS 3 Xrotation Yrotation Zrotation
			JOINT LeftLeg
			{
				OFFSET 0.430247 -32.302673 3.732800
				CHANNELS 3 Xrotation Yrotation Zrotation
				JOINT LeftFoot
				{
					OFFSET -0.430247 -48.264931 -6.423300
					CHANNELS 3 Xrotation Yrotation Zrotation
					JOINT LeftToeBase
					{
						OFFSET 4.230900 -16.068199 23.438400
						CHANNELS 3 Xrotation Yrotation Zrotation
						JOINT LeftToe_End
						{
							OFFSET 4.510700 0.695400 19.974600
							CHANNELS 3 Xrotation Yrotation Zrotation
							End Site
							{
								OFFSET 0 0 0
							}
						}
					}
				}
			}
		}
	}
	JOINT RightUpLeg_virtual
	{
		OFFSET 0.000000 0.000000 0.000000
		CHANNELS 3 Xrotation Yrotation Zrotation
		JOINT RightUpLeg
		{
			OFFSET -11.333700 -6.187798 -0.413800
			CHANNELS 3 Xrotation Yrotation Zrotation
			JOINT RightLeg
			{
				OFFSET -0.430392 -32.302628 3.733000
				CHANNELS 3 Xrotation Yrotation Zrotation
				JOINT RightFoot
				{
					OFFSET 0.430392 -48.264973 -6.423500
					CHANNELS 3 Xrotation Yrotation Zrotation
					JOINT RightToeBase
					{
						OFFSET -4.230900 -16.068199 23.438400
						CHANNELS 3 Xrotation Yrotation Zrotation
						JOINT RightToe_End
						{
							OFFSET -4.510700 0.695400 19.974600
							CHANNELS 3 Xrotation Yrotation Zrotation
							End Site
							{
								OFFSET 0 0 0
							}
						}
					}
				}
			}
		}
	}
	JOINT Spine_virtual
	{
		OFFSET 0.000000 0.000000 0.000000
		CHANNELS 3 Xrotation Yrotation Zrotation
		JOINT Spine
		{
			OFFSET -0.002400 12.777504 0.315300
			CHANNELS 3 Xrotation Yrotation Zrotation
			JOINT Spine1
			{
				OFFSET -0.002067 5.816869 0.032633
				CHANNELS 3 Xrotation Yrotation Zrotation
				JOINT Spine1_split
				{
					OFFSET -0.002067 5.816869 0.032633
					CHANNELS 3 Xrotation Yrotation Zrotation
					JOINT Spine2
					{
						OFFSET -0.002067 5.816869 0.032633
						CHANNELS 3 Xrotation Yrotation Zrotation
						JOINT Neck_virtual
						{
							OFFSET 0.000000 0.000000 0.000000
							CHANNELS 3 Xrotation Yrotation Zrotation
							JOINT Neck
							{
								OFFSET -0.003700 21.199493 -0.826900
								CHANNELS 3 Xrotation Yrotation Zrotation
								JOINT Head
								{
									OFFSET 0.000000 20.442200 4.834800
									CHANNELS 3 Xrotation Yrotation Zrotation
									JOINT HeadTop_End
									{
										OFFSET 0.000000 34.668396 4.968400
										CHANNELS 3 Xrotation Yrotation Zrotation
										End Site
										{
											OFFSET 0 0 0
										}
									}
								}
							}
						}
						JOINT LeftShoulder_virtual
						{
							OFFSET 0.000000 0.000000 0.000000
							CHANNELS 3 Xrotation Yrotation Zrotation
							JOINT LeftShoulder
							{
								OFFSET 3.288150 8.794197 -1.372250
								CHANNELS 3 Xrotation Yrotation Zrotation
								JOINT LeftShoulder_split
								{
									OFFSET 3.288150 8.794197 -1.372250
									CHANNELS 3 Xrotation Yrotation Zrotation
									JOINT LeftArm
									{
										OFFSET 11.953299 -2.279007 -0.146200
										CHANNELS 3 Xrotation Yrotation Zrotation
										JOINT LeftForeArm
										{
											OFFSET 18.448900 0.000000 0.000000
											CHANNELS 3 Xrotation Yrotation Zrotation
											JOINT LeftHand
											{
												OFFSET 29.527798 0.000000 0.000000
												CHANNELS 3 Xrotation Yrotation Zrotation
												End Site
												{
													OFFSET 0 0 0
												}
											}
										}
									}
								}
							}
						}
						JOINT RightShoulder_virtual
						{
							OFFSET 0.000000 0.000000 0.000000
							CHANNELS 3 Xrotation Yrotation Zrotation
							JOINT RightShoulder
							{
								OFFSET -3.249400 8.794197 -1.372250
								CHANNELS 3 Xrotation Yrotation Zrotation
								JOINT RightShoulder_split
								{
									OFFSET -3.249400 8.794197 -1.372250
									CHANNELS 3 Xrotation Yrotation Zrotation
									JOINT RightArm
									{
										OFFSET -11.953299 -2.279007 -0.146200
										CHANNELS 3 Xrotation Yrotation Zrotation
										JOINT RightForeArm
										{
											OFFSET -18.448900 0.000000 0.000000
											CHANNELS 3 Xrotation Yrotation Zrotation
											JOINT RightHand
											{
												OFFSET -29.527802 0.000000 0.000000
												CHANNELS 3 Xrotation Yrotation Zrotation
												End Site
												{
													OFFSET 0 0 0
												}
											}
										}
									}
								}
							}
						}
					}
				}
			}
		}
	}
}
MOTION
Frames: 8
Frame Time: 0.03333333
0.942020 101.085083 -1.785294 0.000000 0.000000 0.000000 -3.087459 5.710467 -2.127288 -11.423659 9.032230 12.780968 17.081921 -3.355955 0.685050 -4.891044 2.020322 -6.555818 2.355674 0.516014 -3.247689 0.000000 0.000000 0.000000 -2.728459 6.371419 -2.295833 -16.602433 -3.586258 -2.677589 13.695801 2.518820 -1.574097 4.687753 0.532137 -3.084012 0.074963 -0.372548 0.059676 0.000000 0.000000 0.000000 -3.217191 8.781440 -2.286941 8.380879 -0.946482 1.311469 2.565142 0.224805 -0.420641 0.091424 -1.685533 0.990791 0.000000 0.000000 0.000000 -3.889777 -0.005661 0.267505 -0.180445 0.679058 0.139071 4.375424 -2.091435 -1.171481 0.000000 0.000000 0.000000 -4.005481 -0.316747 0.314546 0.601763 -2.518085 -7.411249 -2.331804 -2.514149 0.601748 5.269614 -3.240720 -72.846754 5.075837 -12.144220 1.515179 0.000000 0.000000 0.000000 -4.602054 -0.669832 0.291109 0.483153 7.931643 6.070327 -4.087797 -1.669131 -0.363033 4.668186 13.265686 74.542096 17.762359 18.779726 -3.604774 0.000000 0.000000 0.000000 
0.960710 101.181816 -1.646107 0.000000 0.000000 0.000000 -2.918019 5.536177 -2.158142 -11.384049 9.007437 12.908871 16.724389 -3.194810 0.588775 -5.156672 1.857348 -6.358150 2.618459 0.504772 -3.232845 0.000000 0.000000 0.000000 -2.667333 6.062537 -2.295569 -16.577434 -3.458105 -2.585607 13.849420 2.573036 -1.603123 4.560200 0.674577 -3.301183 0.440894 -0.421121 0.156365 0.000000 0.000000 0.000000 -2.805102 8.686051 -2.298103 8.495243 -0.900051 1.342449 2.583339 0.167301 -0.445891 0.405467 -2.053201 0.978884 0.000000 0.000000 0.000000 -3.887747 -0.015967 0.248094 -0.165441 0.814284 0.047906 4.517224 -2.258329 -1.064791 0.000000 0.000000 0.000000 -3.991449 -0.361760 0.293537 0.638842 -2.748742 -7.525619 -2.163114 -2.482056 0.827062 5.049170 -3.127294 -72.979260 5.043885 -12.261389 1.460314 0.000000 0.000000 0.000000 -4.599539 -0.680169 0.312762 0.522512 7.922546 6.177806 -4.033678 -1.697142 -0.522315 4.772366 13.113514 74.496846 17.753789 18.996809 -3.637480 0.000000 0.000000 0.000000 
0.951842 101.232880 -1.510723 0.000000 0.000000 0.000000 -2.785511 5.238789 -2.214202 -11.395710 9.014952 13.128705 16.418607 -2.968059 0.630806 -5.343105 1.576104 -6.390401 2.811834 0.470770 -3.077900 0.000000 0.000000 0.000000 -2.580813 5.751960 -2.346296 -16.833054 -3.319950 -2.447866 14.188848 2.668394 -1.611170 4.489435 0.858322 -3.578261 0.658418 -0.458836 0.122208 0.000000 0.000000 0.000000 -2.421073 8.386158 -2.308949 8.802546 -0.838935 1.424173 2.516793 0.114699 -0.458599 0.558979 -2.261589 0.866184 0.000000 0.000000 0.000000 -3.898695 -0.038114 0.242338 -0.083653 1.027692 -0.043264 4.539827 -2.371245 -1.058000 0.000000 0.000000 0.000000 -4.017171 -0.416226 0.291096 0.671097 -3.098224 -7.667725 -1.953691 -2.365714 1.110007 4.821641 -2.950936 -73.049385 5.128710 -12.317915 1.344183 0.000000 0.000000 0.000000 -4.639761 -0.709698 0.337363 0.547770 7.820827 6.443039 -3.997595 -1.646190 -0.733245 5.033868 13.301024 74.140228 17.676789 19.265395 -3.638067 0.000000 0.000000 0.000000 
0.915479 101.199905 -1.367527 0.000000 0.000000 0.000000 -2.702856 4.940847 -2.265502 -11.348536 9.010136 13.358382 16.237977 -2.733124 0.776794 -5.435473 1.214884 -6.662039 2.823474 0.421411 -2.765796 0.000000 0.000000 0.000000 -2.490893 5.425644 -2.405781 -17.373652 -3.254571 -2.319132 14.700532 2.816633 -1.577569 4.587886 1.070762 -3.833501 0.602916 -0.487779 -0.025190 0.000000 0.000000 0.000000 -2.128642 7.876262 -2.288574 9.229010 -0.778800 1.503295 2.358169 0.066668 -0.441666 0.505861 -2.296810 0.747567 0.000000 0.000000 0.000000 -3.907853 -0.068515 0.259998 0.062554 1.284246 -0.123540 4.433130 -2.448948 -1.122425 0.000000 0.000000 0.000000 -4.079330 -0.474554 0.319008 0.702976 -3.475355 -7.814685 -1.919023 -2.158582 1.260541 4.608797 -2.756413 -73.033703 5.336818 -12.270185 1.188314 0.000000 0.000000 0.000000 -4.724284 -0.757033 0.375577 0.564345 7.634019 6.818910 -4.001766 -1.570305 -0.997965 5.419780 13.805720 73.518899 17.525547 19.546198 -3.604325 0.000000 0.000000 0.000000 
0.833572 101.113754 -1.177265 0.000000 0.000000 0.000000 -2.644256 4.641306 -2.281771 -11.072408 8.993947 13.518088 16.152684 -2.445924 0.965533 -5.515937 0.857880 -7.008116 2.683801 0.367919 -2.411455 0.000000 0.000000 0.000000 -2.394550 5.010318 -2.436177 -18.182394 -3.325409 -2.269933 15.348837 3.031385 -1.498297 4.953224 1.307445 -3.988995 0.326712 -0.509246 -0.233663 0.000000 0.000000 0.000000 -1.942072 7.172922 -2.222049 9.670689 -0.739625 1.535387 2.132270 0.020082 -0.382125 0.396897 -2.185512 0.679770 0.000000 0.000000 0.000000 -3.907029 -0.110007 0.313775 0.236381 1.560622 -0.153949 4.206690 -2.509048 -1.228183 0.000000 0.000000 0.000000 -4.166052 -0.532852 0.383956 0.735359 -3.808362 -7.975903 -2.081667 -1.884053 1.229286 4.404203 -2.563072 -72.916210 5.654227 -12.089775 1.013527 0.000000 0.000000 0.000000 -4.831833 -0.818564 0.445044 0.590749 7.361197 7.235138 -3.986058 -1.530504 -1.298031 5.886292 14.570426 72.700820 17.306620 19.785958 -3.540769 0.000000 0.000000 0.000000 
0.695467 101.014267 -0.993008 0.000000 0.000000 0.000000 -2.589049 4.282826 -2.248404 -10.564421 8.911734 13.587220 16.000760 -2.054250 1.136833 -5.668534 0.607696 -7.320766 2.583182 0.312262 -2.183962 0.000000 0.000000 0.000000 -2.268069 4.465397 -2.418025 -19.175126 -3.524107 -2.301450 16.068599 3.321802 -1.382748 5.502066 1.553553 -4.058690 0.027882 -0.513614 -0.440473 0.000000 0.000000 0.000000 -1.800639 6.309805 -2.143737 10.011171 -0.721200 1.505597 1.874624 -0.038053 -0.270536 0.276316 -1.936354 0.647470 0.000000 0.000000 0.000000 -3.893171 -0.164760 0.409527 0.366959 1.845314 -0.095359 3.862114 -2.575434 -1.332260 0.000000 0.000000 0.000000 -4.268013 -0.594168 0.490681 0.761870 -4.042027 -8.148187 -2.329729 -1.566854 1.053490 4.198941 -2.377976 -72.685364 6.050780 -11.752643 0.826876 0.000000 0.000000 0.000000 -4.932927 -0.888302 0.553919 0.644216 7.021001 7.618833 -3.969046 -1.516171 -1.572931 6.394299 15.486184 71.772270 17.041523 19.948688 -3.459658 0.000000 0.000000 0.000000 
0.539755 100.890869 -0.872559 0.000000 0.000000 0.000000 -2.501829 3.848768 -2.184457 -9.861511 8.750651 13.578037 15.583831 -1.417889 1.241089 -5.946544 0.525537 -7.613392 2.655954 0.248799 -2.185716 0.000000 0.000000 0.000000 -2.066682 3.772214 -2.372011 -20.237342 -3.762005 -2.354779 16.810071 3.671129 -1.265985 6.004484 1.790098 -4.150167 -0.053312 -0.488748 -0.575923 0.000000 0.000000 0.000000 -1.639255 5.301705 -2.092730 10.196811 -0.726477 1.415909 1.633928 -0.114498 -0.119972 0.281229 -1.636298 0.676487 0.000000 0.000000 0.000000 -3.862484 -0.231776 0.539500 0.412218 2.136609 0.059248 3.470634 -2.627756 -1.408677 0.000000 0.000000 0.000000 -4.364991 -0.670184 0.626623 0.777350 -4.158372 -8.340725 -2.575782 -1.282001 0.826243 4.046276 -2.142989 -72.353697 6.475623 -11.305289 0.626551 0.000000 0.000000 0.000000 -5.015530 -0.965816 0.703329 0.728529 6.631802 7.951192 -3.902530 -1.499343 -1.772545 6.877251 16.467050 70.820790 16.752777 20.007000 -3.377190 0.000000 0.000000 0.000000 
0.354554 100.784569 -0.686989 0.000000 0.000000 0.000000 -2.336208 3.285810 -2.124108 -9.012982 8.463088 13.554808 14.899100 -0.516379 1.249017 -6.204782 0.605499 -8.045881 2.760015 0.184731 -2.342910 0.000000 0.000000 0.000000 -1.767494 2.999550 -2.324282 -21.241434 -3.919537 -2.336257 17.477853 4.037751 -1.173212 6.292518 1.973381 -4.320487 0.071868 -0.434616 -0.632775 0.000000 0.000000 0.000000 -1.435693 4.150181 -2.105006 10.215716 -0.752443 1.303946 1.443304 -0.220970 0.047693 0.373129 -1.370751 0.677877 0.000000 0.000000 0.000000 -3.833716 -0.316224 0.677363 0.362109 2.430322 0.320702 3.116070 -2.587835 -1.451449 0.000000 0.000000 0.000000 -4.431635 -0.765739 0.772787 0.781522 -4.149249 -8.523096 -2.741151 -1.151536 0.686650 3.963306 -1.838147 -71.962511 6.866576 -10.876506 0.397739 0.000000 0.000000 0.000000 -5.067169 -1.052799 0.876691 0.828836 6.211485 8.230941 -3.822812 -1.422750 -1.855480 7.286617 17.405890 69.932818 16.451463 19.958141 -3.300573 0.000000 0.000000 0.000000 
